<svg xmlns="http://www.w3.org/2000/svg" viewBox="0 0 224 109.7"><style>.st0{fill:#fff}</style><path class="st0" d="M13.7 109.7H199l7-29.9-175.7.2zM43.8 41.4h171.8l.3-1.3-41.4-.1c2.5-8.6 7.3-13.6 11.6-17.8 8.5-8.2 24.6-7.4 31.9-1.4.3 0 6-17.4 6-17.7-18.1-5.7-34.1-3-46.1 4.3-11.2 6.9-19.9 20.6-23.3 32.5v.1h-2.8l1.1-4.6-21.9.1 4.2-17.7 26.1-.1L165.5 1h-45.7l-9.6 38.9H97.5L95.7 1.2h-22L52.4 39.8H31.3l-1.1-20.2-11.2 19-17 2.9 7.8 11.2L0 74.2l17.8-14.1 13.3 12.5L33 58.1l9.7-.7-12 21.7h18.9l11.7-23 18-1.2-.6 24.1h20.7l-1.2-25.4 8.8-.6-6.4 26H147l3.8-13h-27.1l3.5-14.4 25.4-1.7c-1.9 15.6 3.9 24.8 11.7 29.3l42.3-.2 8.6-35.3-171 11.2-12.8.8.1-1.6 13.5-1 110.5-7.2-2.4.1-120.5 5.2 1.6-1.4 119-5.2h.2l3.9-.2-119.6 2.3 1.2-1 114.9-2.5 3.4-.1h-3.4l-111.2-.7m2.5-2.2L21.4 49v.1l8.4 19.5-11.2-10.5 2.8-9-18 21L12 51.9l9.4-2.9-16.9-6.8-.1-.1 15.3-2.3 9.7-17.2v.2l-8 26.2 8.6-8.7.1-.1-.1.1 15.1-.1m127.6 8.3l23.3-1.6-4.4 18.3c-5.9 2.5-12.4 2.9-16.5-3.4-1.8-2.8-2.3-7.1-2.4-13v-.3zm-93.1-8.7h-10l10.5-20.7-.5 20.7z"/></svg>