<svg width="209" height="38" viewBox="0 0 209 38" fill="none" xmlns="http://www.w3.org/2000/svg">
<g clip-path="url(#clip0_513_54666)">
<path d="M48.7671 21.3686H58.6158V33.9904H64.383V4.75684H58.6158V16.3686H48.7671V4.75684H43V33.9904H48.7671V21.3686Z" fill="#EEEEEE"/>
<path d="M69.2026 33.9904H86.9219V28.9975H74.9698V21.3686H85.6821V16.3686H74.9698V9.79982H86.9219V4.75684H69.2026V33.9904Z" fill="#EEEEEE"/>
<path d="M95.7402 33.9904L101.138 24.0405L106.571 33.9904H112.791L104.76 18.9116L111.927 4.75684H105.707L101.138 14.0763L96.6038 4.75684H90.3422L97.4675 18.9116L89.4785 33.9904H95.7402Z" fill="#EEEEEE"/>
<path d="M124.604 9.37695C127.39 9.37695 128.971 11.0747 129.479 13.8254H134.996C134.048 7.42853 130.218 4.37695 124.548 4.37695C118.161 4.37695 113.668 8.2738 113.668 17.2709V21.4257C113.668 30.3655 118.161 34.3196 124.548 34.3196C130.399 34.3196 133.979 31.4543 134.926 24.8712H129.479C128.859 27.8368 127.459 29.3196 124.604 29.3196C121.267 29.3196 119.491 26.8197 119.491 21.397V17.2423C119.463 11.7122 121.24 9.37695 124.604 9.37695Z" fill="#EEEEEE"/>
<path d="M139.042 4.75684V33.9904H156.754V28.9975H144.809V4.75684H139.042Z" fill="#EEEEEE"/>
<path d="M178.339 33.9975H184.503L174.613 4.75684H169.097L159.206 33.9975H165.384L167.091 28.446H176.605L178.339 33.9975ZM168.623 23.446L171.834 13.1881L175.045 23.4818L168.623 23.446Z" fill="#EEEEEE"/>
<path d="M198.079 4.75684H187.986V33.9975H198.079C204.508 33.9975 208.993 30.5663 208.993 21.2826V17.4861C208.993 8.17374 204.508 4.75684 198.079 4.75684ZM203.226 21.2826C203.226 26.297 201.91 28.9975 198.079 28.9975H193.753V9.79982H198.079C201.91 9.79982 203.226 12.4288 203.226 17.4717V21.2826Z" fill="#EEEEEE"/>
</g>
<g clip-path="url(#clip1_513_54666)">
<path d="M0 9.50128V28.5039L17 38.0051L34 28.5039V9.50128L17 0L0 9.50128ZM30.8307 26.7333L17 34.4537L3.16932 26.7333V11.2924L17 3.57199L30.8307 11.2924V26.7333Z" fill="#EEEEEE"/>
<path d="M12.254 16.9127H8.52388V9.66579L4.3916 11.9716V26.064L8.52388 28.375V21.0406H12.254V30.4595L16.3863 32.7705V5.26514L12.254 7.57612V16.9127Z" fill="#EEEEEE"/>
<path d="M29.6085 26.064V21.9001L21.8095 25.9816V11.8944L29.6085 16.2333V11.9716L20.7725 7.03569L17.6138 5.26514V32.7705L20.7249 31.0308L29.6085 26.064Z" fill="#EEEEEE"/>
</g>
<defs>
<clipPath id="clip0_513_54666">
<rect width="166" height="30" fill="white" transform="translate(43 4.37695)"/>
</clipPath>
<clipPath id="clip1_513_54666">
<rect width="34" height="38" fill="white"/>
</clipPath>
</defs>
</svg>
