<svg xmlns="http://www.w3.org/2000/svg" width="155" height="25" viewBox="0 0 155 25" fill="none">
  <path d="M60.1896 19.4964C59.7222 19.4964 59.3655 19.3675 59.1194 19.1097C58.8734 18.8519 58.7504 18.4898 58.7504 18.0233V8.70621H55.4845C55.1032 8.70621 54.8079 8.60187 54.5988 8.39319C54.3897 8.1845 54.2852 7.89603 54.2852 7.52776C54.2852 7.14722 54.3897 6.85875 54.5988 6.66234C54.8079 6.45366 55.1032 6.34931 55.4845 6.34931H64.8763C65.2576 6.34931 65.5529 6.45366 65.762 6.66234C65.9711 6.85875 66.0757 7.14722 66.0757 7.52776C66.0757 7.89603 65.9711 8.1845 65.762 8.39319C65.5529 8.60187 65.2576 8.70621 64.8763 8.70621H61.6104V18.0233C61.6104 18.4898 61.4874 18.8519 61.2414 19.1097C61.0077 19.3675 60.6571 19.4964 60.1896 19.4964Z" fill="white"/>
  <path d="M70.3146 19.5332C69.2444 19.5332 68.3218 19.3429 67.5469 18.9624C66.7842 18.5696 66.1938 18.0233 65.7755 17.3236C65.3696 16.6116 65.1666 15.7769 65.1666 14.8194C65.1666 13.8865 65.3635 13.0702 65.7571 12.3705C66.1507 11.6585 66.6981 11.1061 67.3993 10.7133C68.1127 10.3082 68.9184 10.1056 69.8164 10.1056C70.4684 10.1056 71.0588 10.2161 71.5878 10.4371C72.1167 10.6457 72.5718 10.9526 72.9532 11.3577C73.3345 11.7505 73.6236 12.2354 73.8204 12.8124C74.0172 13.377 74.1156 14.0092 74.1156 14.7089C74.1156 14.9422 74.0418 15.1202 73.8942 15.2429C73.7466 15.3534 73.5313 15.4086 73.2484 15.4086H67.4546V13.9724H72.1044L71.8092 14.2302C71.8092 13.7269 71.7354 13.3095 71.5878 12.9781C71.4401 12.6344 71.2249 12.3766 70.942 12.2047C70.6713 12.0329 70.3331 11.9469 69.9271 11.9469C69.472 11.9469 69.0845 12.0513 68.7647 12.26C68.4449 12.4687 68.1988 12.7694 68.0266 13.1622C67.8544 13.555 67.7683 14.0276 67.7683 14.58V14.7273C67.7683 15.6603 67.9836 16.3477 68.4141 16.7896C68.8569 17.2316 69.5089 17.4525 70.37 17.4525C70.6652 17.4525 71.0035 17.4157 71.3848 17.342C71.7661 17.2684 72.1229 17.1518 72.455 16.9922C72.7379 16.8572 72.9901 16.8142 73.2115 16.8633C73.4329 16.9001 73.6051 16.9983 73.7281 17.1579C73.8511 17.3175 73.9188 17.5016 73.9311 17.7103C73.9557 17.919 73.9126 18.1277 73.8019 18.3363C73.6912 18.5328 73.5067 18.6985 73.2484 18.8335C72.8302 19.0667 72.3566 19.2386 71.8276 19.3491C71.311 19.4718 70.8066 19.5332 70.3146 19.5332Z" fill="white"/>
  <path d="M78.7991 19.5332C78.1349 19.5332 77.5383 19.4043 77.0093 19.1465C76.4804 18.8887 76.0683 18.5389 75.7731 18.097C75.4778 17.6551 75.3302 17.1579 75.3302 16.6055C75.3302 15.9426 75.5025 15.4209 75.8469 15.0404C76.1913 14.6476 76.751 14.3714 77.526 14.2118C78.3009 14.0399 79.3281 13.954 80.6074 13.954H81.5853V15.3902H80.6258C79.9985 15.3902 79.488 15.4271 79.0943 15.5007C78.713 15.5621 78.4362 15.6726 78.264 15.8321C78.1041 15.9917 78.0242 16.2127 78.0242 16.495C78.0242 16.8387 78.141 17.1211 78.3747 17.342C78.6208 17.563 78.9713 17.6735 79.4265 17.6735C79.7832 17.6735 80.0969 17.5937 80.3675 17.4341C80.6504 17.2622 80.8718 17.0351 81.0318 16.7528C81.1917 16.4582 81.2716 16.1268 81.2716 15.7585V13.641C81.2716 13.1008 81.1486 12.7203 80.9026 12.4993C80.6566 12.2661 80.2383 12.1495 79.6479 12.1495C79.3158 12.1495 78.9529 12.1925 78.5592 12.2784C78.1779 12.352 77.7535 12.4809 77.2861 12.6651C77.0155 12.7878 76.7756 12.8185 76.5665 12.7571C76.3574 12.6835 76.1975 12.5607 76.0868 12.3889C75.976 12.2047 75.9207 12.0083 75.9207 11.7996C75.9207 11.5787 75.9822 11.37 76.1052 11.1736C76.2282 10.9649 76.4312 10.8115 76.7141 10.7133C77.2922 10.48 77.8335 10.3204 78.3378 10.2345C78.8545 10.1486 79.3281 10.1056 79.7586 10.1056C80.7058 10.1056 81.4807 10.2468 82.0835 10.5291C82.6985 10.7992 83.1598 11.2227 83.4673 11.7996C83.7749 12.3643 83.9286 13.0947 83.9286 13.9908V18.0786C83.9286 18.5328 83.8179 18.8826 83.5965 19.1281C83.3751 19.3736 83.0553 19.4964 82.637 19.4964C82.2188 19.4964 81.8928 19.3736 81.6591 19.1281C81.4377 18.8826 81.327 18.5328 81.327 18.0786V17.3973L81.4561 17.5078C81.3823 17.9251 81.2224 18.2872 80.9764 18.5941C80.7427 18.8887 80.4413 19.122 80.0723 19.2938C79.7032 19.4534 79.2789 19.5332 78.7991 19.5332Z" fill="white"/>
  <path d="M90.4169 19.5332C89.4328 19.5332 88.5718 19.3429 87.8337 18.9624C87.108 18.5696 86.5483 18.0172 86.1546 17.3052C85.761 16.5932 85.5642 15.7524 85.5642 14.7826C85.5642 14.0583 85.6749 13.4077 85.8963 12.8308C86.1177 12.2538 86.4376 11.7628 86.8558 11.3577C87.2863 10.9526 87.803 10.6457 88.4057 10.4371C89.0085 10.2161 89.6789 10.1056 90.4169 10.1056C90.7983 10.1056 91.2042 10.1547 91.6347 10.2529C92.0653 10.3389 92.4896 10.4923 92.9079 10.7133C93.1539 10.8237 93.32 10.9833 93.4061 11.192C93.5045 11.3884 93.5414 11.5971 93.5168 11.8181C93.4922 12.0267 93.4122 12.217 93.2769 12.3889C93.1539 12.5484 92.994 12.6589 92.7972 12.7203C92.6004 12.7694 92.3789 12.7326 92.1329 12.6098C91.8992 12.4748 91.6532 12.3766 91.3949 12.3152C91.1488 12.2538 90.9151 12.2231 90.6937 12.2231C90.3247 12.2231 89.9987 12.2845 89.7158 12.4073C89.4329 12.5178 89.193 12.6835 88.9962 12.9044C88.8116 13.1131 88.664 13.377 88.5533 13.6962C88.4549 14.0154 88.4057 14.3836 88.4057 14.801C88.4057 15.6112 88.6025 16.2495 88.9962 16.716C89.4021 17.1702 89.9679 17.3973 90.6937 17.3973C90.9151 17.3973 91.1488 17.3727 91.3949 17.3236C91.6409 17.2622 91.8869 17.164 92.1329 17.029C92.3789 16.9063 92.6004 16.8756 92.7972 16.9369C92.994 16.9983 93.1478 17.1149 93.2585 17.2868C93.3815 17.4464 93.4491 17.6366 93.4614 17.8576C93.486 18.0663 93.4491 18.275 93.3507 18.4837C93.2646 18.6801 93.1047 18.8335 92.871 18.944C92.4527 19.1527 92.0345 19.3 91.6163 19.3859C91.198 19.4841 90.7983 19.5332 90.4169 19.5332Z" fill="white"/>
  <path d="M96.2206 19.4964C95.7655 19.4964 95.4149 19.3736 95.1689 19.1281C94.9352 18.8826 94.8183 18.5328 94.8183 18.0786V7.60142C94.8183 7.13495 94.9352 6.78509 95.1689 6.55186C95.4149 6.30635 95.7655 6.18359 96.2206 6.18359C96.6635 6.18359 97.0018 6.30635 97.2355 6.55186C97.4815 6.78509 97.6045 7.13495 97.6045 7.60142V11.9838H97.3462C97.6291 11.3823 98.0473 10.9219 98.6009 10.6028C99.1667 10.2713 99.8064 10.1056 100.52 10.1056C101.246 10.1056 101.842 10.2468 102.31 10.5291C102.777 10.7992 103.128 11.2166 103.361 11.7812C103.595 12.3336 103.712 13.0395 103.712 13.8988V18.0786C103.712 18.5328 103.589 18.8826 103.343 19.1281C103.109 19.3736 102.765 19.4964 102.31 19.4964C101.867 19.4964 101.522 19.3736 101.276 19.1281C101.043 18.8826 100.926 18.5328 100.926 18.0786V14.0276C100.926 13.4016 100.809 12.9535 100.575 12.6835C100.354 12.4011 100.009 12.26 99.5419 12.26C98.9515 12.26 98.4779 12.4441 98.1212 12.8124C97.7767 13.1806 97.6045 13.6717 97.6045 14.2854V18.0786C97.6045 19.0238 97.1432 19.4964 96.2206 19.4964Z" fill="white"/>
  <path d="M107.36 19.4964C106.942 19.4964 106.622 19.3798 106.401 19.1465C106.179 18.9133 106.069 18.588 106.069 18.1706V7.50935C106.069 7.09198 106.186 6.76668 106.419 6.53345C106.665 6.30021 106.997 6.18359 107.416 6.18359C107.785 6.18359 108.074 6.25725 108.283 6.40455C108.504 6.53958 108.707 6.77896 108.892 7.12267L113.154 14.8931H112.527L116.789 7.12267C116.974 6.77896 117.17 6.53958 117.379 6.40455C117.601 6.25725 117.89 6.18359 118.247 6.18359C118.665 6.18359 118.985 6.30021 119.206 6.53345C119.44 6.76668 119.557 7.09198 119.557 7.50935V18.1706C119.557 18.588 119.446 18.9133 119.225 19.1465C119.003 19.3798 118.683 19.4964 118.265 19.4964C117.847 19.4964 117.521 19.3798 117.287 19.1465C117.066 18.9133 116.955 18.588 116.955 18.1706V10.7133H117.361L113.929 16.8449C113.781 17.0781 113.622 17.2561 113.449 17.3789C113.289 17.4893 113.074 17.5446 112.803 17.5446C112.533 17.5446 112.311 17.4832 112.139 17.3604C111.967 17.2377 111.813 17.0658 111.678 16.8449L108.209 10.6948H108.652V18.1706C108.652 18.588 108.541 18.9133 108.32 19.1465C108.111 19.3798 107.791 19.4964 107.36 19.4964Z" fill="white"/>
  <path d="M126.66 19.5332C125.59 19.5332 124.667 19.3429 123.892 18.9624C123.13 18.5696 122.539 18.0233 122.121 17.3236C121.715 16.6116 121.512 15.7769 121.512 14.8194C121.512 13.8865 121.709 13.0702 122.103 12.3705C122.496 11.6585 123.044 11.1061 123.745 10.7133C124.458 10.3082 125.264 10.1056 126.162 10.1056C126.814 10.1056 127.404 10.2161 127.933 10.4371C128.462 10.6457 128.917 10.9526 129.299 11.3577C129.68 11.7505 129.969 12.2354 130.166 12.8124C130.363 13.377 130.461 14.0092 130.461 14.7089C130.461 14.9422 130.387 15.1202 130.24 15.2429C130.092 15.3534 129.877 15.4086 129.594 15.4086H123.8V13.9724H128.45L128.155 14.2302C128.155 13.7269 128.081 13.3095 127.933 12.9781C127.786 12.6344 127.57 12.3766 127.287 12.2047C127.017 12.0329 126.679 11.9469 126.273 11.9469C125.818 11.9469 125.43 12.0513 125.11 12.26C124.79 12.4687 124.544 12.7694 124.372 13.1622C124.2 13.555 124.114 14.0276 124.114 14.58V14.7273C124.114 15.6603 124.329 16.3477 124.76 16.7896C125.202 17.2316 125.854 17.4525 126.715 17.4525C127.011 17.4525 127.349 17.4157 127.73 17.342C128.112 17.2684 128.468 17.1518 128.8 16.9922C129.083 16.8572 129.336 16.8142 129.557 16.8633C129.778 16.9001 129.951 16.9983 130.074 17.1579C130.197 17.3175 130.264 17.5016 130.277 17.7103C130.301 17.919 130.258 18.1277 130.147 18.3363C130.037 18.5328 129.852 18.6985 129.594 18.8335C129.176 19.0667 128.702 19.2386 128.173 19.3491C127.657 19.4718 127.152 19.5332 126.66 19.5332Z" fill="white"/>
  <path d="M133.429 19.4227C132.937 19.4227 132.543 19.2754 132.248 18.9808C131.965 18.6862 131.823 18.3057 131.823 17.8392C131.823 17.385 131.965 17.0167 132.248 16.7344C132.543 16.4398 132.937 16.2925 133.429 16.2925C133.921 16.2925 134.302 16.4398 134.573 16.7344C134.856 17.0167 134.997 17.385 134.997 17.8392C134.997 18.3057 134.856 18.6862 134.573 18.9808C134.302 19.2754 133.921 19.4227 133.429 19.4227Z" fill="white"/>
  <path d="M140.41 19.4964C139.943 19.4964 139.586 19.3675 139.34 19.1097C139.094 18.8519 138.971 18.4898 138.971 18.0233V8.70621H135.705C135.324 8.70621 135.029 8.60187 134.82 8.39319C134.61 8.1845 134.506 7.89603 134.506 7.52776C134.506 7.14722 134.61 6.85875 134.82 6.66234C135.029 6.45366 135.324 6.34931 135.705 6.34931H145.097C145.478 6.34931 145.774 6.45366 145.983 6.66234C146.192 6.85875 146.296 7.14722 146.296 7.52776C146.296 7.89603 146.192 8.1845 145.983 8.39319C145.774 8.60187 145.478 8.70621 145.097 8.70621H141.831V18.0233C141.831 18.4898 141.708 18.8519 141.462 19.1097C141.228 19.3675 140.878 19.4964 140.41 19.4964Z" fill="white"/>
  <path d="M150.185 19.5332C149.213 19.5332 148.364 19.3429 147.638 18.9624C146.925 18.5819 146.371 18.0356 145.978 17.3236C145.584 16.6116 145.387 15.7708 145.387 14.801C145.387 14.0767 145.498 13.4261 145.72 12.8492C145.941 12.2722 146.261 11.7812 146.679 11.3761C147.11 10.9588 147.62 10.6457 148.21 10.4371C148.801 10.2161 149.459 10.1056 150.185 10.1056C151.157 10.1056 151.999 10.2959 152.713 10.6764C153.438 11.057 153.998 11.5971 154.392 12.2968C154.798 12.9965 155.001 13.8312 155.001 14.801C155.001 15.5375 154.884 16.1943 154.65 16.7712C154.429 17.3482 154.109 17.8453 153.691 18.2627C153.272 18.6801 152.762 18.9992 152.159 19.2202C151.569 19.4289 150.911 19.5332 150.185 19.5332ZM150.185 17.4525C150.591 17.4525 150.941 17.3543 151.237 17.1579C151.532 16.9615 151.765 16.673 151.938 16.2925C152.11 15.8997 152.196 15.4025 152.196 14.801C152.196 13.9049 152.011 13.2481 151.642 12.8308C151.273 12.4011 150.788 12.1863 150.185 12.1863C149.791 12.1863 149.441 12.2784 149.133 12.4625C148.838 12.6466 148.604 12.9351 148.432 13.3279C148.272 13.7085 148.192 14.1995 148.192 14.801C148.192 15.6971 148.377 16.3661 148.746 16.808C149.115 17.2377 149.594 17.4525 150.185 17.4525Z" fill="white"/>
  <path fill-rule="evenodd" clip-rule="evenodd" d="M42.9555 1.46787C43.3193 1.06822 42.7953 0.485551 42.3594 0.804984L39.5287 2.87947L30.2811 9.52697C30.2437 9.5412 30.2078 9.56065 30.1743 9.58539L29.2534 10.2657L27.0297 11.8642C26.8437 11.9979 26.5869 11.9698 26.4343 11.7991L19.2999 3.82114C19.1247 3.62523 18.8193 3.62152 18.6394 3.8131L0.122301 23.5327C-0.146281 23.8188 0.0565168 24.2874 0.448876 24.2874H6.12536C6.2498 24.2874 6.36864 24.2356 6.45339 24.1445L18.6395 11.0425C18.8191 10.8494 19.1257 10.8524 19.3015 11.049L26.3717 18.9552C26.5487 19.1532 26.8582 19.1545 27.0369 18.9581L29.9588 15.7477L38.6466 24.1612C38.7302 24.2421 38.8419 24.2873 38.9583 24.2873H44.8522C45.2553 24.2873 45.4534 23.7966 45.1632 23.5168L33.2983 12.0785L42.9555 1.46787Z" fill="white"/>
</svg>
